<svg xmlns="http://www.w3.org/2000/svg" version="1.1" viewBox="169 156 167 166" style="max-height: 500px" width="167" height="166">
<path transform="translate(0,0)" fill="#FEFEFE" d="M0 0 C165 0 330 0 500 0 C500 165 500 330 500 500 C335 500 170 500 0 500 C0 335 0 170 0 0 Z"/>
<path transform="translate(96,123)" fill="#FCFDFE" d="M0 0 C101.64 0 203.28 0 308 0 C308 101.31 308 202.62 308 307 C206.36 307 104.72 307 0 307 C0 205.69 0 104.38 0 0 Z"/>
<path transform="translate(96,123)" fill="#0765B6" d="M0 0 C101.64 0 203.28 0 308 0 C308 101.31 308 202.62 308 307 C206.36 307 104.72 307 0 307 C0 205.69 0 104.38 0 0 Z M8 8 C8 104.36 8 200.72 8 300 C104.36 300 200.72 300 300 300 C300 203.64 300 107.28 300 8 C203.64 8 107.28 8 8 8 Z"/>
<path transform="translate(252.875,163.75)" fill="#0262B5" d="M0 0 C1.19061035 0.01232666 1.19061035 0.01232666 2.40527344 0.02490234 C17.49199375 0.31229788 30.68371578 5.25320657 42.125 15.25 C42.73730469 15.70890625 43.34960938 16.1678125 43.98046875 16.640625 C51.55041512 22.45594804 58.21453128 32.62431178 59.51953125 42.12109375 C59.7784201 44.83079703 59.98246143 47.53193688 60.125 50.25 C58.37683142 50.75636607 56.62637737 51.25484619 54.875 51.75 C53.90046875 52.0284375 52.9259375 52.306875 51.921875 52.59375 C49.125 53.25 49.125 53.25 45.125 53.25 C41.50137289 47.07641307 41.50137289 47.07641307 40.02734375 43.83984375 C35.42756052 33.75150561 29.0825002 27.69240125 18.828125 23.31640625 C7.77542387 20.13350814 -4.55467602 21.24863647 -14.640625 26.76171875 C-29.77782575 35.96397877 -39.74887298 48.60006193 -45.875 65.25 C-48.35509131 76.88499625 -47.53042755 87.69882921 -41.875 98.25 C-39.35943641 101.78042616 -36.8103936 105.2823032 -32.875 107.25 C-34.334765 112.60247166 -37.96880969 115.57870309 -41.875 119.25 C-42.87840713 120.24658123 -43.87957659 121.24544426 -44.875 122.25 C-58.16301023 111.20542007 -67.94111169 97.94507801 -69.875 80.25 C-71.19808166 57.17240251 -62.34155653 39.39145267 -47.31640625 22.34765625 C-34.86136935 9.16954028 -18.42796265 -0.2328158 0 0 Z"/>
<path transform="translate(261.67578125,216.4140625)" fill="#03BF65" d="M0 0 C0.92515915 0.00848969 1.8503183 0.01697937 2.80351257 0.02572632 C5.74911546 0.05922789 8.69194803 0.1344999 11.63671875 0.2109375 C13.63733016 0.24104135 15.63798463 0.26841642 17.63867188 0.29296875 C22.53491633 0.35900858 27.42909841 0.46250717 32.32421875 0.5859375 C33.77703805 8.87484045 34.96194811 17.16689669 35.94921875 25.5234375 C36.1503125 27.16795898 36.1503125 27.16795898 36.35546875 28.84570312 C36.48179687 29.90337891 36.608125 30.96105469 36.73828125 32.05078125 C36.85123535 32.9955835 36.96418945 33.94038574 37.08056641 34.91381836 C37.72004516 41.92693956 37.72004516 41.92693956 36.19433594 44.46704102 C35.67516602 45.04381592 35.15599609 45.62059082 34.62109375 46.21484375 C34.05261719 46.85744141 33.48414063 47.50003906 32.8984375 48.16210938 C31.99544922 49.1453418 31.99544922 49.1453418 31.07421875 50.1484375 C30.48769531 50.80779297 29.90117187 51.46714844 29.296875 52.14648438 C26.39707888 55.38839127 23.44307991 58.55199583 20.32421875 61.5859375 C18.18093517 55.29289209 16.20146836 48.96326065 14.32421875 42.5859375 C13.5971875 43.43414062 12.87015625 44.28234375 12.12109375 45.15625 C11.6413208 45.71594482 11.16154785 46.27563965 10.66723633 46.85229492 C9.5913924 48.10752861 8.51571286 49.36290321 7.44018555 50.6184082 C4.68783233 53.8308849 1.93328533 57.04139753 -0.828125 60.24609375 C-6.18088105 66.46374294 -11.45726282 72.72747502 -16.62890625 79.09765625 C-19.56380309 82.66546023 -22.60249794 86.13714047 -25.67578125 89.5859375 C-27.16078125 89.0909375 -27.16078125 89.0909375 -28.67578125 88.5859375 C-29.00578125 82.9759375 -29.33578125 77.3659375 -29.67578125 71.5859375 C-35.94578125 71.5859375 -42.21578125 71.5859375 -48.67578125 71.5859375 C-46.61939942 67.47317385 -44.1111547 64.61878739 -40.98828125 61.3359375 C-39.89115333 60.16608976 -38.79479448 58.99552026 -37.69921875 57.82421875 C-37.17295898 57.26299316 -36.64669922 56.70176758 -36.10449219 56.12353516 C-34.40095104 54.29016158 -32.74849862 52.41789665 -31.11328125 50.5234375 C-28.2353054 47.19730969 -25.27778937 43.94827494 -22.30078125 40.7109375 C-18.70893597 36.8019643 -15.11837036 32.89210258 -11.55078125 28.9609375 C-10.82632813 28.16429687 -10.101875 27.36765625 -9.35546875 26.546875 C-7.625788 24.68779869 -7.625788 24.68779869 -6.67578125 22.5859375 C-8.35607422 22.49505859 -8.35607422 22.49505859 -10.0703125 22.40234375 C-11.54298109 22.31792326 -13.01563669 22.23327601 -14.48828125 22.1484375 C-15.22626953 22.10912109 -15.96425781 22.06980469 -16.72460938 22.02929688 C-19.90649467 21.84212715 -22.63740503 21.59872957 -25.67578125 20.5859375 C-24.31336978 16.44041811 -22.52315148 14.12774372 -19.36328125 11.1484375 C-16.74057989 8.65932025 -14.62644295 6.51083417 -12.63134766 3.47387695 C-9.14005192 -0.71820306 -5.12106398 -0.17761116 0 0 Z"/>
<path transform="translate(339,334)" fill="#0A51B0" d="M0 0 C3.70390021 2.02666238 5.65363011 3.48044516 8 7 C8.64110173 11.67666844 9.11890087 16.77883619 6.94921875 21.0859375 C4.68089954 23.82933241 2.61657993 25.77367881 -0.953125 26.2734375 C-5.20719718 26.46154273 -8.09982354 26.43570087 -11.5 23.6875 C-15.39515439 19.50020903 -15.2863858 15.90244926 -15.21484375 10.44140625 C-14.93073784 7.21293 -14.13872445 5.43372093 -12 3 C-8.06805815 -0.1673976 -4.97806095 -0.61134082 0 0 Z"/>
<path transform="translate(350,335)" fill="#0F54B1" d="M0 0 C1.98 0 3.96 0 6 0 C7.32 4.62 8.64 9.24 10 14 C11.32 9.38 12.64 4.76 14 0 C15.98 0 17.96 0 20 0 C21.32 5.28 22.64 10.56 24 16 C25.32 10.72 26.64 5.44 28 0 C29.98 0 31.96 0 34 0 C32.20327378 8.38472237 30.10105676 16.68756669 28 25 C25.69 25 23.38 25 21 25 C20.49255577 23.10614563 19.99435426 21.20981334 19.5 19.3125 C19.2215625 18.25675781 18.943125 17.20101563 18.65625 16.11328125 C18.0608285 13.28857328 17.87213508 10.87163292 18 8 C17.34 8 16.68 8 16 8 C15.95101563 8.64066406 15.90203125 9.28132813 15.8515625 9.94140625 C15.3959855 15.21196085 14.6402621 19.96986288 13 25 C10.69 25 8.38 25 6 25 C4.99604779 21.2093684 3.99750906 17.41733176 3 13.625 C2.71382813 12.54476563 2.42765625 11.46453125 2.1328125 10.3515625 C1.72675781 8.8046875 1.72675781 8.8046875 1.3125 7.2265625 C1.06113281 6.27346191 0.80976563 5.32036133 0.55078125 4.33837891 C0 2 0 2 0 0 Z"/>
<path transform="translate(301,334)" fill="#1559B4" d="M0 0 C13 0 13 0 18 3 C19.58873246 6.17746491 19.41026221 9.54012202 19 13 C17.5 15.5 17.5 15.5 16 17 C16.66 18.11375 17.32 19.2275 18 20.375 C20 23.75 20 23.75 20 26 C18.02 26 16.04 26 14 26 C13.75765625 25.43410156 13.5153125 24.86820312 13.265625 24.28515625 C12.93046875 23.55167969 12.5953125 22.81820313 12.25 22.0625 C11.92515625 21.33160156 11.6003125 20.60070312 11.265625 19.84765625 C9.97377317 17.52359666 9.97377317 17.52359666 6 17 C6 19.97 6 22.94 6 26 C4.02 26 2.04 26 0 26 C0 17.42 0 8.84 0 0 Z"/>
<path transform="translate(200,334)" fill="#0FC26C" d="M0 0 C6 0 6 0 7.59912109 1.46875 C8.18040771 2.47421875 8.18040771 2.47421875 8.7734375 3.5 C9.20527344 4.221875 9.63710937 4.94375 10.08203125 5.6875 C10.50871094 6.450625 10.93539062 7.21375 11.375 8 C11.82488281 8.763125 12.27476562 9.52625 12.73828125 10.3125 C13.8453284 12.19683557 14.92532412 14.09701663 16 16 C16.33 11.05 16.66 6.1 17 1 C18.65 1 20.3 1 22 1 C22 9.25 22 17.5 22 26 C20.02 26 18.04 26 16 26 C14.03061502 23.63914706 12.61827367 21.63100599 11.125 19 C10.7228125 18.33226562 10.320625 17.66453125 9.90625 16.9765625 C8.91789927 15.32931129 7.95628934 13.66606855 7 12 C6.67 16.62 6.34 21.24 6 26 C4.02 26 2.04 26 0 26 C0 17.42 0 8.84 0 0 Z"/>
<path transform="translate(274,267)" fill="#84E0B4" d="M0 0 C2 2 2 2 2.37109375 4.3359375 C1.87904317 7.86834269 0.54162404 9.09078432 -1.9375 11.625 C-5.18539826 15.05474015 -8.29151618 18.50448953 -11.25 22.1875 C-15.51676732 27.46086384 -19.93591564 32.58799355 -24.39550781 37.69799805 C-24.91983398 38.299104 -25.44416016 38.90020996 -25.984375 39.51953125 C-26.74633179 40.39109863 -26.74633179 40.39109863 -27.52368164 41.28027344 C-28.96057479 42.95407455 -30.34611786 44.66160372 -31.73046875 46.37890625 C-34 49 -34 49 -36.5625 50.125 C-39 50 -39 50 -41.375 48.3125 C-43 46 -43 46 -42.75 43.75 C-42.5025 43.1725 -42.255 42.595 -42 42 C-41.12988281 42.13019531 -40.25976562 42.26039063 -39.36328125 42.39453125 C-35.37611466 41.92681484 -34.17136098 40.61260041 -31.66333008 37.58105469 C-31.17630615 36.95618164 -30.68928223 36.33130859 -30.1875 35.6875 C-29.66760498 35.05102539 -29.14770996 34.41455078 -28.61206055 33.75878906 C-27.05848899 31.851623 -25.52831483 29.92742566 -24 28 C-22.44016916 26.08116048 -20.87795723 24.16425208 -19.3125 22.25 C-18.6009375 21.3734375 -17.889375 20.496875 -17.15625 19.59375 C-14.23003959 16.07381574 -11.16729083 12.68877028 -8.0859375 9.3046875 C-5.32633903 6.25569294 -2.65928666 3.13659453 0 0 Z"/>
<path transform="translate(127,335)" fill="#05C066" d="M0 0 C6 0 6 0 8.01171875 1.9765625 C8.56472656 2.85054688 9.11773437 3.72453125 9.6875 4.625 C10.24824219 5.48351562 10.80898437 6.34203125 11.38671875 7.2265625 C13.04807209 10.08264208 14.52234744 13.04469487 16 16 C16.33 10.72 16.66 5.44 17 0 C18.65 0 20.3 0 22 0 C22 8.25 22 16.5 22 25 C20.02 25 18.04 25 16 25 C14.04700692 22.68063148 12.66160091 20.71799679 11.1875 18.125 C10.79369141 17.47402344 10.39988281 16.82304687 9.99414062 16.15234375 C8.58403527 13.80619933 7.22442442 11.44884885 6 9 C5.67 14.28 5.34 19.56 5 25 C3.35 25 1.7 25 0 25 C0 16.75 0 8.5 0 0 Z"/>
<path transform="translate(256,335)" fill="#0BC16A" d="M0 0 C2.64 0 5.28 0 8 0 C10.14777452 5.26661731 12.2442378 10.55256673 14.25 15.875 C14.58515625 16.75929688 14.9203125 17.64359375 15.265625 18.5546875 C16 21 16 21 16 25 C14.35 25 12.7 25 11 25 C10.34 23.02 9.68 21.04 9 19 C6.03 19.33 3.06 19.66 0 20 C-0.99 22.475 -0.99 22.475 -2 25 C-3.98 25 -5.96 25 -8 25 C-5.36 16.75 -2.72 8.5 0 0 Z"/>
<path transform="translate(292,335)" fill="#1156B2" d="M0 0 C3.0625 2.375 3.0625 2.375 5 5 C5 5.99 5 6.98 5 8 C2.6875 8.1875 2.6875 8.1875 0 8 C-0.45375 7.505 -0.9075 7.01 -1.375 6.5 C-3.08407763 4.60131895 -3.08407763 4.60131895 -6.6875 4.8125 C-7.780625 4.874375 -8.87375 4.93625 -10 5 C-11.23125293 8.69375878 -11.46420032 12.15487401 -11 16 C-9.66169042 18.4595774 -9.66169042 18.4595774 -8 20 C-4.535 19.505 -4.535 19.505 -1 19 C-0.67 18.01 -0.34 17.02 0 16 C-1.65 16 -3.3 16 -5 16 C-5 14.35 -5 12.7 -5 11 C-1.37 11 2.26 11 6 11 C6.29254918 15.97333608 6.16504232 19.0436971 3 23 C-1.19729255 25.53623635 -5.21353087 25.82810885 -10 25 C-13.57236674 23.0729972 -15.69560702 20.91317895 -17 17 C-17.40162118 12.44314431 -17.54057047 8.33720064 -15.8125 4.0625 C-11.14697386 -1.24654699 -6.6477984 -1.99554165 0 0 Z"/>
<path transform="translate(179,335)" fill="#00BF63" d="M0 0 C5.61 0 11.22 0 17 0 C17 1.32 17 2.64 17 4 C13.04 4 9.08 4 5 4 C5 5.98 5 7.96 5 10 C8.63 10 12.26 10 16 10 C16 11.32 16 12.64 16 14 C12.37 14 8.74 14 5 14 C5 16.31 5 18.62 5 21 C8.96 21 12.92 21 17 21 C17 22.32 17 23.64 17 25 C11.39 25 5.78 25 0 25 C0 16.75 0 8.5 0 0 Z"/>
<path transform="translate(152,335)" fill="#0DC26B" d="M0 0 C1.98 0 3.96 0 6 0 C8.32655091 5.98410537 10.42934122 11.58008874 11 18 C11.66 18 12.32 18 13 18 C13.0825 17.071875 13.165 16.14375 13.25 15.1875 C13.98242925 9.87465502 16.06686151 4.97221202 18 0 C19.98 0 21.96 0 24 0 C21.36 8.25 18.72 16.5 16 25 C13.36 25 10.72 25 8 25 C6.66165014 21.21008507 5.33017337 17.41779164 4 13.625 C3.6184375 12.54476563 3.236875 11.46453125 2.84375 10.3515625 C2.4828125 9.3203125 2.121875 8.2890625 1.75 7.2265625 C1.41484375 6.27346191 1.0796875 5.32036133 0.734375 4.33837891 C0 2 0 2 0 0 Z"/>
<path transform="translate(299,223)" fill="#8EE2BA" d="M0 0 C1.94545672 3.33155701 2.44027571 6.2411045 2.8515625 10.05859375 C2.98046875 11.25033203 3.109375 12.44207031 3.2421875 13.66992188 C3.36851562 14.91322266 3.49484375 16.15652344 3.625 17.4375 C3.7590625 18.64599609 3.893125 19.85449219 4.03125 21.09960938 C6.29057007 42.62078578 6.29057007 42.62078578 3.27734375 48.17578125 C2.50519531 48.88089844 1.73304688 49.58601563 0.9375 50.3125 C0.12023437 51.10269531 -0.69703125 51.89289063 -1.5390625 52.70703125 C-2.35117187 53.46371094 -3.16328125 54.22039062 -4 55 C-5.33128127 56.48335647 -6.64576809 57.98207875 -7.9375 59.5 C-9.58417277 61.39970759 -11.22128106 63.22128106 -13 65 C-16.29714793 64.67028521 -17.6226839 64.3773161 -20 62 C-20 60.68 -20 59.36 -20 58 C-19.030625 57.87625 -18.06125 57.7525 -17.0625 57.625 C-11.1157878 55.93969695 -7.74349948 50.59799392 -4 46 C-3.3709375 45.31164062 -2.741875 44.62328125 -2.09375 43.9140625 C1.55676255 39.69530979 2.68837353 36.66723249 2.34375 31.1015625 C2.2303125 30.07804687 2.116875 29.05453125 2 28 C1.92652344 27.32549805 1.85304688 26.65099609 1.77734375 25.95605469 C1.43663056 22.84772281 1.08855811 19.74058441 0.71728516 16.63574219 C0.06120815 11.05025354 -0.18157719 5.62889287 0 0 Z"/>
<path transform="translate(226,335)" fill="#13C36F" d="M0 0 C6.6 0 13.2 0 20 0 C20 1.32 20 2.64 20 4 C17.69 4 15.38 4 13 4 C13 10.93 13 17.86 13 25 C11.02 25 9.04 25 7 25 C7 18.07 7 11.14 7 4 C4.69 4 2.38 4 0 4 C0 2.68 0 1.36 0 0 Z"/>
<path transform="translate(336.625,339.0625)" fill="#F4F7FB" d="M0 0 C3.375 0.9375 3.375 0.9375 5.375 3.9375 C5.82490479 8.58651613 5.98414831 10.85456968 3.6875 14.9375 C1.375 16.9375 1.375 16.9375 -1.125 17.5625 C-3.625 16.9375 -3.625 16.9375 -5.9375 14.9375 C-8.27038729 10.79014482 -8.22528545 8.66474791 -7.625 3.9375 C-5.36085821 0.22430746 -4.37048589 -0.0753532 0 0 Z"/>
<path transform="translate(117,334)" fill="#23C779" d="M0 0 C1.98 0 3.96 0 6 0 C6 8.58 6 17.16 6 26 C4.02 26 2.04 26 0 26 C0 17.42 0 8.84 0 0 Z"/>
<path transform="translate(211,292)" fill="#7DDDB1" d="M0 0 C5.94 0 11.88 0 18 0 C18 1.98 18 3.96 18 6 C15.37472811 6.05382106 12.75055287 6.09358313 10.125 6.125 C9.37863281 6.14175781 8.63226563 6.15851563 7.86328125 6.17578125 C5.90805539 6.1933959 3.95257979 6.10320189 2 6 C1.34 5.34 0.68 4.68 0 4 C0 2.68 0 1.36 0 0 Z"/>
<path transform="translate(233,240)" fill="#8BE2B8" d="M0 0 C4.62 0.66 9.24 1.32 14 2 C12 6 12 6 10 8 C6.68204168 8.36064764 4.62847913 8.31423956 1.625 6.8125 C0 5 0 5 0 0 Z"/>
<path transform="translate(307,339)" fill="#F3F6FB" d="M0 0 C5.75 -0.125 5.75 -0.125 8 1 C8.125 3.375 8.125 3.375 8 6 C6 8 6 8 2.875 8.125 C1.451875 8.063125 1.451875 8.063125 0 8 C0 5.36 0 2.72 0 0 Z"/>
<path transform="translate(260,340)" fill="#DDF6EA" d="M0 0 C2.29633824 3.44450737 2.54016485 5.93812283 3 10 C1.02 10 -0.96 10 -3 10 C-2.69201674 8.51988629 -2.378482 7.04092675 -2.0625 5.5625 C-1.88847656 4.73878906 -1.71445312 3.91507812 -1.53515625 3.06640625 C-1 1 -1 1 0 0 Z"/>
<path transform="translate(219,292)" fill="#0A968E" d="M0 0 C2.97 0 5.94 0 9 0 C9 0.99 9 1.98 9 3 C5.26512223 2.5020163 3.18762365 2.12508244 0 0 Z"/>
</svg>